<?xml version="1.0" encoding="UTF-8"?>
<svg xmlns="http://www.w3.org/2000/svg" xmlns:xlink="http://www.w3.org/1999/xlink" width="457px" height="100px" viewBox="0 0 456 100" version="1.1">
<g id="surface1">
<path style=" stroke:none;fill-rule:evenodd;fill:rgb(0%,41.176471%,100%);fill-opacity:1;" d="M 54.8125 0.273438 C 33.808594 -1.941406 13.683594 9.328125 4.574219 28.410156 C -4.535156 47.492188 -0.660156 70.25 14.253906 85.226562 C 29.167969 100.207031 51.882812 104.160156 70.96875 95.09375 C 90.050781 86.03125 101.371094 65.917969 99.222656 44.875 C 96.84375 21.351562 78.300781 2.726562 54.8125 0.273438 Z M 53.199219 76.394531 C 41.894531 77.914062 30.878906 72.050781 25.8125 61.816406 C 20.75 51.585938 22.757812 39.257812 30.8125 31.167969 C 38.863281 23.082031 51.167969 21.03125 61.402344 26.070312 C 71.636719 31.109375 77.527344 42.121094 76.046875 53.445312 C 74.488281 65.386719 65.121094 74.796875 53.199219 76.394531 Z M 125.90625 2.25 C 122.402344 2.257812 119.089844 3.847656 116.882812 6.574219 C 114.679688 9.300781 113.820312 12.878906 114.542969 16.3125 C 115.640625 21.804688 120.761719 25.558594 126.34375 25.558594 L 158.734375 25.558594 L 108.328125 92.351562 C 107.566406 93.355469 107.441406 94.707031 108 95.835938 C 108.558594 96.96875 109.707031 97.683594 110.964844 97.691406 L 190.03125 97.691406 C 195.609375 97.691406 200.734375 93.9375 201.832031 88.445312 C 202.554688 85.011719 201.695312 81.433594 199.492188 78.707031 C 197.289062 75.976562 193.976562 74.386719 190.472656 74.378906 L 151.007812 74.378906 L 201.375 7.636719 C 202.144531 6.621094 202.273438 5.257812 201.707031 4.117188 C 201.144531 2.976562 199.984375 2.253906 198.710938 2.25 Z M 441.847656 2.519531 C 436.453125 3.800781 432.675781 8.667969 432.765625 14.214844 L 432.765625 53.027344 L 369.960938 2.980469 C 368.957031 2.183594 367.582031 2.03125 366.429688 2.59375 C 365.273438 3.152344 364.542969 4.324219 364.546875 5.609375 L 364.546875 85.742188 C 364.457031 91.292969 368.234375 96.15625 373.628906 97.441406 C 377.070312 98.199219 380.671875 97.355469 383.417969 95.140625 C 386.164062 92.925781 387.757812 89.585938 387.753906 86.054688 L 387.753906 46.910156 L 450.554688 96.953125 C 451.5625 97.753906 452.933594 97.902344 454.089844 97.34375 C 455.242188 96.785156 455.972656 95.609375 455.972656 94.328125 L 455.972656 13.902344 C 455.972656 10.371094 454.378906 7.03125 451.632812 4.820312 C 448.886719 2.605469 445.289062 1.761719 441.847656 2.519531 Z M 278.324219 23.328125 C 304.890625 23.328125 324.738281 37.382812 324.738281 49.957031 C 324.738281 62.53125 304.890625 76.585938 278.324219 76.585938 C 251.761719 76.585938 231.914062 62.53125 231.914062 49.957031 C 231.914062 37.382812 251.761719 23.328125 278.324219 23.328125 M 278.324219 0.0195312 C 239.875 0.0195312 208.707031 22.378906 208.707031 49.957031 C 208.707031 77.539062 239.875 99.894531 278.324219 99.894531 C 316.773438 99.894531 347.941406 77.539062 347.941406 49.957031 C 347.941406 22.378906 316.773438 0.0195312 278.324219 0.0195312 Z M 278.324219 0.0195312 "/>
</g>
</svg>
