<?xml version="1.0" encoding="UTF-8"?>
<svg xmlns="http://www.w3.org/2000/svg" xmlns:xlink="http://www.w3.org/1999/xlink" width="667px" height="100px" viewBox="0 0 666 100" version="1.1">
<g id="surface1">
<path style=" stroke:none;fill-rule:nonzero;fill:rgb(89.019608%,7.450981%,74.901962%);fill-opacity:1;" d="M 280.785156 29.464844 C 273.191406 29.464844 266.398438 31.734375 260.671875 35.464844 L 260.671875 0.667969 L 244.554688 0.667969 L 244.554688 64.800781 C 244.554688 84.265625 260.804688 100 280.652344 100 C 300.5 100 317.015625 84.398438 317.015625 64.667969 C 317.015625 44.933594 301.03125 29.464844 280.785156 29.464844 Z M 197.402344 30.535156 C 179.554688 32.265625 164.902344 47.332031 164.902344 65.332031 C 164.902344 84.265625 181.550781 100.265625 201 100.265625 C 220.445312 100.265625 237.097656 84.398438 237.097656 65.332031 C 237.097656 57.199219 234.164062 49.867188 229.238281 44 L 193.671875 0.800781 L 172.894531 0.800781 C 172.894531 0.800781 197.402344 30.535156 197.402344 30.535156 Z M 73.125 69.332031 L 58.339844 32 L 47.019531 32 L 32.367188 69.332031 L 17.582031 32 L 0 32 L 25.839844 97.867188 L 37.164062 97.867188 L 52.746094 58.667969 L 68.332031 97.867188 L 79.652344 97.867188 L 105.359375 32 L 87.910156 32 Z M 360.707031 29.601562 C 340.59375 29.601562 324.34375 44.800781 324.34375 64.132812 C 324.34375 83.332031 338.59375 100.265625 359.773438 100.265625 C 372.425781 100.265625 382.683594 94.265625 390.007812 84.132812 L 377.488281 74.132812 C 373.890625 80.535156 366.832031 84.265625 359.90625 84.265625 C 350.847656 84.265625 341.925781 78 341.257812 68.800781 L 393.871094 68.800781 L 393.871094 64 C 393.738281 43.734375 380.019531 29.601562 360.707031 29.601562 Z M 565.832031 29.601562 C 545.71875 29.601562 529.601562 44.800781 529.601562 64.933594 C 529.601562 83.867188 543.855469 100.132812 564.902344 100.132812 C 577.554688 100.132812 587.8125 94.132812 595.136719 84 L 584.082031 74.800781 C 580.21875 80.667969 573.160156 84.132812 564.636719 84.132812 C 556.242188 84.132812 547.050781 77.867188 546.386719 68.667969 L 598.734375 68.667969 L 598.734375 63.199219 C 598.734375 43.734375 585.148438 29.601562 565.832031 29.601562 Z M 622.042969 51.199219 C 622.042969 47.066406 627.773438 43.867188 635.230469 43.867188 C 642.691406 43.867188 650.949219 47.464844 656.277344 53.332031 L 666 41.734375 C 656.675781 33.734375 647.351562 29.601562 635.628906 29.601562 C 620.976562 29.601562 605.925781 36.132812 605.925781 51.199219 C 605.925781 69.734375 622.308594 71.066406 635.628906 72.132812 C 643.089844 72.667969 649.75 73.199219 649.75 78 C 649.75 83.199219 642.15625 85.601562 635.628906 85.601562 C 627.105469 85.601562 618.980469 81.734375 613.519531 75.199219 L 603.128906 86 C 611.386719 95.867188 623.375 100.132812 635.097656 100.132812 C 649.75 100.132812 665.867188 93.332031 665.867188 77.734375 C 665.867188 60.132812 649.351562 58.398438 636.695312 57.199219 C 628.570312 56.265625 622.042969 55.601562 622.042969 51.199219 Z M 418.113281 46.933594 L 418.113281 32 L 401.996094 32 L 401.996094 97.734375 L 418.113281 97.734375 L 418.113281 69.867188 C 420.246094 54.398438 432.898438 48.132812 447.550781 48.132812 L 447.550781 32 L 445.953125 32 C 433.566406 32 424.507812 36.398438 418.113281 46.933594 Z M 469.128906 46.933594 L 469.128906 32 L 453.011719 32 L 453.011719 97.734375 L 469.128906 97.734375 L 469.128906 69.867188 C 471.261719 52.398438 486.710938 48.132812 498.566406 48.132812 L 498.566406 32 L 496.835938 32 C 484.582031 32 475.523438 36.265625 469.128906 46.933594 Z M 140.660156 97.734375 L 156.777344 97.734375 L 156.777344 0.800781 L 140.660156 0.800781 Z M 201 84.398438 C 189.941406 84.398438 180.886719 75.734375 180.886719 64.933594 C 180.886719 54.132812 189.808594 45.332031 200.867188 45.332031 C 211.789062 45.332031 221.113281 54 221.113281 64.933594 C 221.113281 75.867188 212.1875 84.398438 201 84.398438 Z M 280.785156 84.398438 C 269.863281 84.398438 260.671875 75.867188 260.671875 64.800781 C 260.671875 53.734375 269.332031 45.332031 280.785156 45.332031 C 292.242188 45.332031 301.03125 54 301.03125 64.800781 C 301.03125 75.601562 291.839844 84.398438 280.785156 84.398438 Z M 112.820312 97.734375 L 128.9375 97.734375 L 128.9375 32 L 112.820312 32 Z M 505.359375 97.734375 L 521.476562 97.734375 L 521.476562 32 L 505.359375 32 Z M 120.679688 0 C 114.152344 0 108.691406 5.332031 108.691406 12 C 108.691406 18.800781 114.417969 23.464844 120.679688 23.464844 C 127.605469 23.464844 132.933594 17.734375 132.933594 11.734375 C 132.933594 5.601562 127.339844 0 120.679688 0 Z M 513.351562 0 C 506.824219 0 501.230469 5.332031 501.230469 12 C 501.230469 18.667969 506.558594 23.464844 513.621094 23.464844 C 520.679688 23.464844 525.472656 18.800781 525.472656 12.265625 C 525.472656 5.734375 520.011719 0 513.351562 0 Z M 548.25 55.601562 C 550.914062 49.066406 556.644531 45.332031 565.035156 45.332031 C 573.425781 45.332031 578.621094 49.332031 580.753906 55.601562 Z M 342.988281 55.601562 C 345.652344 49.066406 351.382812 45.332031 359.640625 45.332031 C 368.03125 45.332031 373.492188 49.332031 375.625 55.601562 C 375.757812 55.601562 342.988281 55.601562 342.988281 55.601562 Z M 342.988281 55.601562 "/>
</g>
</svg>
