<?xml version="1.0" encoding="UTF-8"?>
<svg xmlns="http://www.w3.org/2000/svg" xmlns:xlink="http://www.w3.org/1999/xlink" width="680px" height="100px" viewBox="0 0 680 100" version="1.1">
<g id="surface1">
<path style=" stroke:none;fill-rule:nonzero;fill:rgb(100%,32.156864%,14.901961%);fill-opacity:1;" d="M 100 50 C 100 22.386719 77.613281 0 50 0 C 22.386719 0 0 22.386719 0 50 C 0 77.613281 22.386719 100 50 100 C 77.613281 100 100 77.613281 100 50 Z M 100 50 "/>
<path style=" stroke:none;fill-rule:nonzero;fill:rgb(100%,100%,100%);fill-opacity:1;" d="M 58.101562 81.5 L 58.101562 27.964844 L 51.820312 27.964844 C 47.292969 27.964844 43.859375 28.925781 41.527344 30.851562 C 39.191406 32.703125 38.027344 35.171875 38.027344 38.261719 C 38.027344 40.597656 38.4375 42.585938 39.261719 44.234375 C 40.082031 45.878906 41.285156 47.390625 42.863281 48.761719 C 44.441406 50.136719 46.433594 51.648438 48.835938 53.292969 L 54.808594 57.308594 L 37.308594 81.503906 L 24.125 81.503906 L 40.808594 58.851562 L 48.628906 65.851562 L 42.453125 61.941406 C 39.347656 59.921875 36.390625 57.6875 33.601562 55.25 C 31.125 53.050781 29.238281 50.648438 27.9375 48.042969 C 26.632812 45.433594 25.980469 42.378906 25.980469 38.878906 C 25.980469 32.839844 28.144531 27.964844 32.464844 24.261719 C 36.859375 20.488281 43.277344 18.601562 51.714844 18.601562 L 70.351562 18.601562 L 70.351562 81.5 Z M 58.101562 81.5 "/>
<path style=" stroke:none;fill-rule:nonzero;fill:rgb(100%,32.156864%,14.901961%);fill-opacity:1;" d="M 158.515625 100 C 130.933594 100 108.515625 77.671875 108.515625 50.089844 C 108.515625 22.507812 130.933594 0 158.515625 0 C 186.097656 0 208.515625 22.507812 208.515625 50.089844 C 208.515625 77.671875 186.097656 100 158.515625 100 Z M 158.515625 100 "/>
<path style=" stroke:none;fill-rule:nonzero;fill:rgb(100%,86.666667%,0%);fill-opacity:1;" d="M 150.773438 6.765625 L 94.992188 93.800781 L 120.5625 93.800781 L 152.785156 43.632812 L 152 43.277344 L 143.066406 79.175781 L 161.980469 82.511719 L 181.421875 58.078125 L 180.367188 57.554688 L 173.800781 85.308594 L 215.011719 77.453125 L 206.601562 63.605469 L 191.75 67.007812 L 193.503906 69.023438 L 200.421875 40.039062 L 184.308594 29.265625 L 163.207031 55.800781 L 164.257812 56.328125 L 172.921875 21.558594 Z M 150.773438 6.765625 "/>
<path style=" stroke:none;fill-rule:nonzero;fill:rgb(100%,86.666667%,0%);fill-opacity:1;" d="M 150.773438 6.765625 L 94.992188 93.800781 L 120.5625 93.800781 L 152.785156 43.632812 L 152 43.277344 L 143.066406 79.175781 L 161.980469 82.511719 L 181.421875 58.078125 L 180.367188 57.554688 L 173.800781 85.308594 L 190.367188 82.148438 L 200.421875 40.039062 L 184.308594 29.265625 L 163.207031 55.800781 L 164.257812 56.328125 L 172.921875 21.558594 Z M 150.773438 6.765625 "/>
<path style=" stroke:none;fill-rule:nonzero;fill:rgb(0%,0%,0%);fill-opacity:1;" d="M 227.683594 81.5 L 258.773438 18.601562 L 282.449219 18.601562 L 287.289062 56.898438 L 311.277344 18.597656 L 334.75 18.597656 L 334.75 81.5 L 311.792969 81.5 L 311.792969 47.734375 L 290.480469 81.5 L 267.523438 81.5 L 263.101562 47.421875 L 246.214844 81.5 L 227.679688 81.5 Z M 405.269531 69.042969 C 405.269531 71.171875 405.308594 73.265625 405.375 75.324219 C 405.441406 77.382812 405.578125 79.40625 405.785156 81.398438 L 384.472656 81.398438 C 383.96875 80.410156 383.554688 79.375 383.238281 78.308594 C 382.820312 76.902344 382.542969 75.453125 382.417969 73.988281 C 380.21875 76.59375 377.441406 78.753906 374.078125 80.46875 C 370.785156 82.121094 366.078125 82.941406 359.972656 82.941406 C 353.796875 82.941406 348.851562 81.5 345.148438 78.621094 C 341.511719 75.738281 339.691406 71.894531 339.691406 67.085938 C 339.691406 62.625 340.960938 59.195312 343.5 56.792969 C 346.109375 54.324219 350.15625 52.605469 355.648438 51.648438 C 361.140625 50.613281 368.171875 50.101562 376.753906 50.101562 L 382.105469 50.101562 L 382.105469 48.964844 C 382.105469 46.773438 381.179688 45.089844 379.328125 43.921875 C 377.472656 42.757812 374.007812 42.171875 368.929688 42.171875 C 363.921875 42.171875 359.253906 42.828125 354.925781 44.128906 C 350.671875 45.363281 347.207031 46.601562 344.53125 47.835938 L 344.53125 34.039062 C 347.550781 32.941406 351.601562 31.84375 356.679688 30.746094 C 361.828125 29.578125 367.691406 28.996094 374.285156 28.996094 C 380.941406 28.996094 386.566406 29.613281 391.167969 30.851562 C 395.765625 32.015625 399.265625 34.039062 401.667969 36.921875 C 404.070312 39.738281 405.269531 43.648438 405.269531 48.660156 Z M 412.269531 30.542969 L 433.582031 30.542969 L 434.816406 39.289062 C 437.425781 35.859375 440.546875 33.355469 444.1875 31.777344 C 447.824219 30.195312 452.011719 29.410156 456.746094 29.410156 C 462.101562 29.410156 466.902344 30.371094 471.160156 32.289062 C 475.324219 34.132812 478.835938 37.183594 481.246094 41.042969 C 483.71875 44.953125 484.953125 49.898438 484.953125 55.867188 C 484.953125 61.835938 483.71875 66.8125 481.246094 70.792969 C 478.847656 74.707031 475.484375 77.660156 471.160156 79.648438 C 466.832031 81.640625 461.894531 82.632812 456.332031 82.632812 C 452.351562 82.660156 448.40625 81.925781 444.699219 80.46875 C 441.128906 78.964844 438.042969 76.59375 435.4375 73.371094 L 435.4375 94.785156 L 412.269531 94.785156 L 412.269531 30.539062 Z M 552.078125 55.867188 C 552.078125 50.785156 553.449219 46.257812 556.195312 42.277344 C 559.011719 38.296875 562.988281 35.175781 568.136719 32.910156 C 573.351562 30.578125 579.496094 29.410156 586.566406 29.410156 C 593.910156 29.410156 600.054688 30.675781 604.992188 33.214844 C 610.003906 35.757812 613.503906 39.359375 615.492188 44.027344 C 617.554688 48.691406 617.828125 54.21875 616.316406 60.601562 L 575.652344 60.601562 C 576.476562 63.554688 578.296875 65.785156 581.109375 67.292969 C 583.992188 68.738281 588.246094 69.457031 593.875 69.457031 C 597.785156 69.457031 601.421875 69.113281 604.785156 68.421875 C 607.949219 67.722656 611.078125 66.867188 614.15625 65.851562 L 614.15625 78.101562 C 611.203125 79.476562 607.910156 80.574219 604.273438 81.398438 C 600.703125 82.21875 596.003906 82.632812 590.171875 82.632812 C 577.332031 82.632812 567.761719 80.265625 561.445312 75.53125 C 555.199219 70.726562 552.078125 64.171875 552.078125 55.863281 Z M 618.273438 30.539062 L 677.058594 30.539062 L 677.058594 43.71875 L 658.734375 43.71875 L 658.734375 81.398438 L 635.570312 81.398438 L 635.570312 43.71875 L 618.273438 43.71875 Z M 489.378906 30.539062 L 512.542969 30.539062 L 512.542969 53.601562 L 534.472656 30.539062 L 554.445312 30.539062 L 534.058594 51.746094 L 558.667969 81.398438 L 530.664062 81.398438 L 512.542969 58.953125 L 512.542969 81.398438 L 489.378906 81.398438 Z M 586.671875 40.941406 C 583.511719 40.941406 581.007812 41.867188 579.152344 43.71875 C 577.300781 45.503906 576.101562 47.804688 575.550781 50.617188 L 595.933594 50.617188 C 595.867188 47.804688 595.109375 45.503906 593.671875 43.714844 C 592.226562 41.867188 589.894531 40.941406 586.671875 40.941406 Z M 461.277344 55.867188 C 461.277344 51.746094 460.144531 48.488281 457.875 46.085938 C 455.683594 43.617188 452.523438 42.378906 448.40625 42.378906 C 444.632812 42.378906 441.472656 43.546875 438.9375 45.878906 C 436.398438 48.148438 435.125 51.472656 435.125 55.867188 C 435.125 60.261719 436.359375 63.65625 438.832031 66.058594 C 441.375 68.394531 444.5625 69.558594 448.40625 69.558594 C 452.664062 69.558594 455.851562 68.324219 457.980469 65.851562 C 460.175781 63.382812 461.277344 60.054688 461.277344 55.867188 Z M 382.105469 59.464844 L 376.855469 59.464844 C 371.847656 59.464844 368.242188 59.882812 366.046875 60.707031 C 363.921875 61.53125 362.855469 63.105469 362.855469 65.441406 C 362.855469 67.429688 363.542969 68.90625 364.914062 69.867188 C 366.355469 70.761719 368.070312 71.207031 370.0625 71.207031 C 373.082031 71.207031 375.554688 70.65625 377.472656 69.558594 C 379.464844 68.394531 381.011719 67.054688 382.105469 65.542969 Z M 382.105469 59.464844 "/>
</g>
</svg>
